# xmcd
#
# Track frame offsets:
#	150
#	21170
#	40237
#	68614
#	95302
#	123408
#	147062
#	163959
#	186501
#	207729
#	230416
#	247023
#	279418
#	310266
#
# Disc length: 4550 seconds
#
# Revision: 1
# Processed by: cddbd v1.5.2PL0 Copyright (c) Steve Scherf et al.
# Submitted via: EZCDAudioConverter 1.3.4.1
#
DISCID=cd11c40e
DTITLE=John Martyn - 1980   Grace And Danger (Alternative
DYEAR=1980
DGENRE=
TTITLE0=Running Up The Harbour
TTITLE1=Some People Are Crazy [Take 1]
TTITLE2=Untitled [Instrumental]
TTITLE3=Our Love [Alternate Take]
TTITLE4=Johnny Too Bad [Take 3]
TTITLE5=Grace And Danger [Instrumental]
TTITLE6=Johnny Too Bad (Version)
TTITLE7=Sweet Little Mystery [BBC 'Old Grey Whistle Test']
TTITLE8=Some People Are Crazy [BBC 'Rock Goes To College']
TTITLE9=Grace And Danger [BBC 'Rock Goes To College']
TTITLE10=Save Some (For Me) [BBC 'Rock Goes To College']
TTITLE11=Johnny Too Bad [BBC 'Rock Goes To College']
TTITLE12=Hurt In Your Heart [BBC 'A Little Night Music']
TTITLE13=Sweet Little Mystery [Live At The London Palladium]
EXTD=
EXTT0=
EXTT1=
EXTT2=
EXTT3=
EXTT4=
EXTT5=
EXTT6=
EXTT7=
EXTT8=
EXTT9=
EXTT10=
EXTT11=
EXTT12=
EXTT13=
PLAYORDER=
